<svg xmlns="http://www.w3.org/2000/svg" xmlns:xlink="http://www.w3.org/1999/xlink" viewBox="0 0 120.66 51"><defs><style>.cls-1{fill:#154e3b;}.cls-2{stroke:#333;stroke-miterlimit:10;fill:url(#linear-gradient);}.cls-3,.cls-4{fill:#fff;}.cls-4{font-size:8px;font-family:Helvetica-Bold, Helvetica;font-weight:700;}</style><linearGradient id="linear-gradient" x1="65.58" y1="8.42" x2="124.74" y2="42.58" gradientUnits="userSpaceOnUse"><stop offset="0" stop-color="#006924"/><stop offset="1" stop-color="#14463a"/></linearGradient></defs><g id="Layer_2" data-name="Layer 2"><g id="Layer_1-2" data-name="Layer 1"><g id="Bea"><path class="cls-1" d="M16.05,24.5A9.87,9.87,0,0,1,22,26.73,6.52,6.52,0,0,1,24,31.81a6.73,6.73,0,0,1-2.57,5.62c-1.71,1.34-4.12,2-7.21,2-.8,0-2,0-3.7-.12s-2.92-.14-3.78-.14c-.34,0-1,0-1.88.06s-1.64.06-2.18.06a4.3,4.3,0,0,1-2-.37A1.16,1.16,0,0,1,0,37.84c0-.48.34-.86,1-1.13A3.2,3.2,0,0,0,2.25,36a11,11,0,0,0,.42-3.25q.15-2.82.15-7.58,0-4.46-.16-7.28a10.42,10.42,0,0,0-.41-3.17A3.43,3.43,0,0,0,1,14c-.68-.28-1-.66-1-1.15a1.14,1.14,0,0,1,.58-1.06,3.58,3.58,0,0,1,1.78-.35l2,0,2.23,0q1.53,0,3.87-.09c1.57-.06,2.62-.1,3.15-.1A10.21,10.21,0,0,1,20,13.07a5.93,5.93,0,0,1,2.24,5,5.9,5.9,0,0,1-1.6,4.27A8.22,8.22,0,0,1,16.05,24.5Zm-8.37-.87,1.13.08c.39,0,.78,0,1.19,0q3.75,0,5.37-1.14A4.21,4.21,0,0,0,17,18.88a4.43,4.43,0,0,0-1.53-3.7A7.61,7.61,0,0,0,10.76,14,6.92,6.92,0,0,0,9,14.15a1.26,1.26,0,0,0-.83.46,7.22,7.22,0,0,0-.39,2.32c-.07,1.2-.11,3-.11,5.53Zm0,2.82v4.13c0,1.81,0,3.07.11,3.78A4.81,4.81,0,0,0,8.18,36a1.76,1.76,0,0,0,1.2.65,12.16,12.16,0,0,0,2.62.22,7.54,7.54,0,0,0,4.82-1.33,4.61,4.61,0,0,0,1.66-3.85,4.56,4.56,0,0,0-1.87-4q-1.87-1.3-5.85-1.3c-.48,0-1,0-1.5,0S8.21,26.4,7.68,26.45Z"/><path class="cls-1" d="M33.36,29.42H33.1a2.78,2.78,0,0,0-1.28.16c-.14.11-.2.41-.2.89a5.89,5.89,0,0,0,5.92,5.88,6.68,6.68,0,0,0,2-.31,7.29,7.29,0,0,0,1.91-1l.7-.54a2.78,2.78,0,0,1,1.51-.8.93.93,0,0,1,.7.28.87.87,0,0,1,.28.66,2.11,2.11,0,0,1-.48,1.15,6.71,6.71,0,0,1-1.3,1.32,12,12,0,0,1-3.25,2,9.37,9.37,0,0,1-3.39.6,9.26,9.26,0,0,1-6.88-2.81,9.55,9.55,0,0,1-2.75-7,10.26,10.26,0,0,1,2.83-7.45A9.62,9.62,0,0,1,36.7,19.6a8.12,8.12,0,0,1,5.91,2.12,7.69,7.69,0,0,1,2.18,5.75A2.49,2.49,0,0,1,44.44,29a2.75,2.75,0,0,1-1.8.38ZM33,27.21h6.27a2.13,2.13,0,0,0,1-.15.63.63,0,0,0,.24-.58,4.28,4.28,0,0,0-1.26-3.14,4.22,4.22,0,0,0-3.16-1.27,4,4,0,0,0-3,1.27,4.36,4.36,0,0,0-1.21,3.14.65.65,0,0,0,.23.58A1.89,1.89,0,0,0,33,27.21Z"/><path class="cls-1" d="M63.46,33.92a5.57,5.57,0,0,0,.18,1.64.94.94,0,0,0,.58.65l.59.16c.82.23,1.23.55,1.23,1,0,.62-.44,1.18-1.3,1.68a6,6,0,0,1-3,.75,2.66,2.66,0,0,1-1.81-1,9.06,9.06,0,0,0-1-1,2.69,2.69,0,0,0-.83.43,8.87,8.87,0,0,1-4.83,1.6,6.39,6.39,0,0,1-4.56-1.64,5.66,5.66,0,0,1-1.75-4.3A5.74,5.74,0,0,1,49.17,29a10,10,0,0,1,6.27-1.74c.51,0,1.06,0,1.66.09s1.25.13,1.94.25l0-2.05A4.11,4.11,0,0,0,58.32,23,2.58,2.58,0,0,0,56.2,22a3.78,3.78,0,0,0-1.76.42,5.41,5.41,0,0,0-1.58,1.29c-.1.11-.23.28-.41.5A3.22,3.22,0,0,1,50,25.72a1.58,1.58,0,0,1-1.22-.49,1.9,1.9,0,0,1-.45-1.33c0-1.21.75-2.23,2.24-3.06a11.83,11.83,0,0,1,5.77-1.24,10.7,10.7,0,0,1,3.7.57,5.25,5.25,0,0,1,2.39,1.64,4.62,4.62,0,0,1,.82,1.93,22.51,22.51,0,0,1,.24,4ZM59,30.08c-.51-.11-1-.19-1.46-.25a13,13,0,0,0-1.34-.08,5.09,5.09,0,0,0-3.25.93,3.09,3.09,0,0,0-1.17,2.56,3.22,3.22,0,0,0,1,2.47,3.91,3.91,0,0,0,2.72.92,3.68,3.68,0,0,0,2.7-.83,4.06,4.06,0,0,0,.81-2.86Z"/></g><rect id="Kr-bg" class="cls-2" x="70.16" y="0.5" width="50" height="50"/><g id="Kr"><path class="cls-3" d="M78,12.41h5.32V23.09l10-10.68h7L89.69,23.07l11.17,15.25h-7L85.92,27l-2.61,2.64v8.67H78Z"/><path class="cls-3" d="M114.14,18.71l.43,0v5.13c-.32,0-.6-.06-.85-.07l-.59,0c-2,0-3.37.66-4.07,2a7.78,7.78,0,0,0-.58,3.41v9.16h-5V19.16h4.78V22.5a10.59,10.59,0,0,1,2-2.62,5.55,5.55,0,0,1,3.66-1.18Z"/></g><text class="cls-4" transform="translate(109.16 9.32)">36</text></g></g></svg>